<svg width="260" height="61.486" viewBox="0 0 261.048 61.735" class="looka-1j8o68f"><path d="M23.124 30.567c2.388.66 3.986 2.226 3.986 5.244 0 3.575-2.17 5.932-6.636 5.932H11.76V20.578h6.855c4.568 0 6.972 2.197 6.972 5.801 0 1.859-.805 3.384-2.46 4.189zm-4.466-6.343h-2.667v4.98h2.857c1.875 0 2.695-1.113 2.695-2.548 0-1.405-.924-2.431-2.886-2.431m.996 13.754c2.372 0 3.193-1.275 3.193-2.65 0-1.407-.805-2.74-3.281-2.74H15.99v5.39zm25.532 3.766-1.539-4.365h-8.888l-1.54 4.365h-4.496l7.794-21.166h5.376l7.792 21.166zm-9.14-8.042h6.314l-3.15-8.98zm29.089-13.124v3.866H60.11v17.3h-4.35V24.444h-5.053v-3.865zm15.599 0v3.866H75.71v17.3h-4.35V24.444h-5.055v-3.865zm15.601 3.866h-7.849v4.805h6.956v3.824h-6.956v4.788h7.85v3.883H84.06V20.579h12.274zm15.703 17.3-5.508-9.315h-1.274v9.315h-4.395V20.579h7.676c4.789 0 6.81 2.828 6.81 6.329 0 2.841-1.611 4.687-4.482 5.302l6.371 9.535zm-6.783-17.521v5.057h2.593c2.343 0 3.296-.998 3.296-2.52 0-1.511-.952-2.535-3.296-2.535z" fill="#fff"/><g xmlns="http://www.w3.org/2000/svg" fill="#fff"><path d="M146.415 23.874c-2.171 0-3.963-1.752-3.963-3.962s1.791-3.924 3.963-3.924 3.963 1.752 3.963 3.962-1.791 3.924-3.963 3.924m0-7.01c-1.714 0-3.086 1.372-3.086 3.086s1.372 3.086 3.086 3.086 3.086-1.372 3.086-3.086-1.372-3.086-3.086-3.086m6.705 20.383a.42.42 0 0 1-.42-.42V27.95a1.87 1.87 0 0 0-1.867-1.867h-8.839a1.87 1.87 0 0 0-1.867 1.867v8.877c0 .23-.19.42-.42.42s-.42-.19-.42-.42V27.95a2.717 2.717 0 0 1 2.705-2.705h8.801a2.717 2.717 0 0 1 2.705 2.705v8.877c.039.23-.152.42-.38.42"/><path d="M146.415 29.742a.42.42 0 0 1-.42-.42v-3.658c0-.229.19-.42.42-.42s.42.19.42.42v3.657a.42.42 0 0 1-.42.42m10.516-10.096a3.96 3.96 0 0 1-3.963-3.963c0-2.171 1.791-3.924 3.963-3.924s3.962 1.752 3.962 3.963c-.039 2.171-1.791 3.924-3.963 3.924m0-7.049c-1.714 0-3.086 1.371-3.086 3.086s1.372 3.087 3.086 3.087 3.086-1.373 3.086-3.087-1.372-3.086-3.087-3.086m6.706 21.107a.42.42 0 0 1-.42-.42v-9.601a1.87 1.87 0 0 0-1.867-1.867h-9.906c-.23 0-.42-.19-.42-.42s.19-.419.42-.419h9.906a2.717 2.717 0 0 1 2.705 2.705v9.563c0 .267-.19.457-.419.457"/><path d="M156.931 25.513a.42.42 0 0 1-.42-.42v-3.656c0-.23.19-.42.42-.42s.42.19.42.42v3.658a.42.42 0 0 1-.42.42m-20.536-5.868a3.96 3.96 0 0 1-3.963-3.962c.039-2.171 1.791-3.924 3.963-3.924s3.962 1.752 3.962 3.963c0 2.171-1.791 3.924-3.963 3.924m0-7.049c-1.714 0-3.086 1.371-3.086 3.086s1.372 3.087 3.086 3.087 3.086-1.373 3.086-3.087-1.371-3.086-3.086-3.086m-6.668 15.811a.42.42 0 0 1-.42-.42v-4.305a2.717 2.717 0 0 1 2.705-2.705h9.411c.229 0 .42.19.42.419s-.19.42-.42.42h-9.41a1.87 1.87 0 0 0-1.868 1.867v4.305a.42.42 0 0 1-.419.42"/><path d="M136.395 25.513a.42.42 0 0 1-.42-.42v-3.656c0-.23.19-.42.42-.42s.419.19.419.42v3.658c.039.229-.152.42-.419.42m.686 8.191a.45.45 0 0 1-.342-.19l-3.581-4.8-3.087 4.114h3.087c.228 0 .419.19.419.42s-.19.42-.419.42h-3.963c-.152 0-.305-.076-.381-.229s-.076-.305.039-.457l3.924-5.22c.152-.229.533-.229.686 0l3.924 5.257a.43.43 0 0 1-.076.61.54.54 0 0 1-.228.076"/><path d="M147.482 49.858c-9.144 0-16.573-7.43-16.573-16.573 0-.229.19-.42.42-.42s.42.19.42.42c0 8.687 7.049 15.734 15.734 15.734s15.735-7.049 15.735-15.734c0-.229.19-.42.42-.42s.419.19.419.42c0 9.144-7.43 16.573-16.573 16.573"/><path d="M147.482 46.201c-7.124 0-12.916-5.791-12.916-12.916 0-.229.19-.42.42-.42s.42.19.42.42c0 6.668 5.41 12.077 12.077 12.077s12.077-5.411 12.077-12.077c0-.229.19-.42.42-.42s.42.19.42.42c0 7.125-5.791 12.916-12.916 12.916"/></g><path d="M181.241 41.744c-1.596 0-3.535-.428-5.444-1.426l1.81-3.52c1.011.712 1.996 1.097 3.121 1.097 1.683 0 2.538-1.012 2.538-3.42V20.864h4.277v14.41c0 4.218-2.566 6.47-6.3 6.47m20.423.001c-6.058 0-10.534-4.134-10.534-10.591 0-6.47 4.476-10.576 10.533-10.576 6.043 0 10.519 4.105 10.519 10.576 0 6.457-4.475 10.59-10.518 10.59m0-3.919c3.549 0 6.271-2.496 6.271-6.67 0-4.163-2.722-6.642-6.271-6.642s-6.271 2.479-6.271 6.641c0 4.177 2.722 6.669 6.271 6.669m25.513-7.241c2.324.642 3.878 2.166 3.878 5.103 0 3.478-2.109 5.773-6.457 5.773h-8.48V20.864h6.669c4.447 0 6.783 2.138 6.783 5.645 0 1.809-.784 3.292-2.393 4.077zm-4.345-6.17h-2.594v4.845h2.779c1.824 0 2.622-1.083 2.622-2.479 0-1.367-.897-2.366-2.807-2.366m.969 13.384c2.309 0 3.107-1.241 3.107-2.578 0-1.369-.784-2.667-3.194-2.667h-3.477v5.246zm17.9 3.948c-4.42 0-7.866-2.124-8.495-5.985l4.418-1.013c.284 2.309 1.98 3.507 4.247 3.507 1.738 0 3.122-.77 3.107-2.51-.014-1.937-2.294-2.549-4.804-3.32-3.02-.94-6.256-2.052-6.256-5.843 0-3.834 3.135-6.002 7.268-6.002 3.62 0 7.268 1.469 8.096 5.416l-4.133 1.027c-.386-2.052-1.766-2.95-3.705-2.95-1.725 0-3.192.712-3.192 2.408 0 1.582 2.023 2.109 4.361 2.808 3.107.94 6.784 2.137 6.784 6.242 0 4.375-3.663 6.215-7.696 6.215" fill="#fff"/></svg>